<svg id="A" xmlns="http://www.w3.org/2000/svg" width="5000" height="3000" viewBox="0 0 5000 3000">
  <metadata><?xpacket begin="﻿" id="W5M0MpCehiHzreSzNTczkc9d"?>
<x:xmpmeta xmlns:x="adobe:ns:meta/" x:xmptk="Adobe XMP Core 5.6-c138 79.159824, 2016/09/14-01:09:01        ">
   <rdf:RDF xmlns:rdf="http://www.w3.org/1999/02/22-rdf-syntax-ns#">
      <rdf:Description rdf:about=""/>
   </rdf:RDF>
</x:xmpmeta>
                                                                                                    
                                                                                                    
                                                                                                    
                                                                                                    
                                                                                                    
                                                                                                    
                                                                                                    
                                                                                                    
                                                                                                    
                                                                                                    
                                                                                                    
                                                                                                    
                                                                                                    
                                                                                                    
                                                                                                    
                                                                                                    
                                                                                                    
                                                                                                    
                                                                                                    
                                                                                                    
                           
<?xpacket end="w"?></metadata>
<defs>
    <style>
      .cls-1 {
        font-size: 391.667px;
      }

      .cls-1, .cls-3 {
        fill: #5d5c61;
      }

      .cls-1, .cls-2, .cls-5 {
        font-family: ZurichBlackExtendedBT, ZurichBlackExtendedBT, ZurichBlackExtendedBT, Zurich;
        font-weight: 800;
      }

      .cls-2 {
        font-size: 712.5px;
      }

      .cls-2, .cls-4 {
        fill: #aea297;
      }

      .cls-3, .cls-4 {
        fill-rule: evenodd;
      }

      .cls-5 {
        font-size: 383.333px;
        fill: #fff;
      }
    </style>
  </defs>
  <text id="Restore_Maintain" data-name="Restore &amp; Maintain" class="cls-1" x="236.188" y="2696.001">Restore &amp; Maintain</text>
  <text id="FLOORING" class="cls-2" transform="translate(206.719 2295.15)">FLOORING</text>
  <path id="A_lower_level" data-name="A lower level" class="cls-3" d="M486,1242H1719v238H486V1242Zm-63.092,113.09c29.3-51.96,29.274-51.95,63.092-113.09v238H352C391.343,1410.51,391.47,1410.55,422.908,1355.09Zm1359.182,0c-29.3-51.96-29.27-51.95-63.09-113.09v238h134C1813.66,1410.51,1813.53,1410.55,1782.09,1355.09ZM351.528,1480H678v167c-108.824,0-217.648,0-423-.28C313.007,1546.13,313.2,1546.25,351.528,1480ZM678,1480h95c-21.393,36.74-21.436,36.82-39.8,68.78-19.184,33.59-19.224,33.66-55.2,98.22V1480Zm1175.47,0H1527v167c108.82,0,217.65,0,423-.28C1891.99,1546.13,1891.8,1546.25,1853.47,1480ZM1527,1480h-95c21.39,36.74,21.44,36.82,39.8,68.78,19.18,33.59,19.22,33.66,55.2,98.22V1480Z"/>
  <path id="A_middle_level" data-name="A middle level" class="cls-4" d="M1229,806h238.25C1556.3,966.437,1556,966.728,1651,1127c-263.17-.14-342.58-0.14-422-0.14V806Zm-126,0h126V908H1103V806Zm0,102h126v219c-28.82-50.47-28.73-50.28-67.15-118.09C1132.09,956.541,1132.04,956.537,1103,908ZM977,806H738.75C649.7,966.437,650,966.728,555,1127c263.167-.14,342.583-0.14,422-0.14V806Zm0,0h126V908H977V806Zm126,102H977v219c28.82-50.47,28.73-50.28,67.15-118.09C1073.91,956.541,1073.96,956.537,1103,908Z"/>
  <path id="A_top_level" data-name="A top level" class="cls-3" d="M1102.74,179.3c0.05,1.01.16,0.016,0.03-.3C1261.76,452.962,1262.26,452.934,1408,709H797C945.988,451.02,945.96,450.563,1102.74,179.3Z"/>
  <path id="horzontal_bar" data-name="horzontal bar" class="cls-3" d="M1778,1240c1132,0.96,2031.5.96,2931,.96V1647H2010.5C1890.1,1437.27,1889.97,1437.21,1778,1240Z"/>
  <text id="LLSTONE" class="cls-5" x="2050.39" y="1586.721" textLength="2600" lengthAdjust="spacing">LLSTONE</text>
</svg>
